#!OML:ASF X:\für Bonn\!DataBase\2005_08_11_Bastian_Final\c3d\Bastian.ASF
:FULLY-SPECIFIED
:DEGREES
66
root -1.34312 10.1258 2.11209 164.401 -4.10363 -170.484
lowerback 30.112 -0.938904 6.44868
upperback 7.2957 -1.03834 2.46547
thorax -8.26833 -1.43574 -0.449123
lowerneck -10.7469 -5.35925 -3.28991
upperneck -6.9198 -7.60555 11.2412
head 0.259659 -4.11862 3.95966
rclavicle -9.0447e-015 2.26615e-014
rhumerus 69.4751 11.4892 12.9898
rradius 39.2991
rwrist -64.9522
rhand -48.1583 -9.51699
rfingers 7.12502
rthumb -20.8205 -38.4199
lclavicle -9.0447e-015 2.26615e-014
lhumerus 72.484 -16.0658 -39.4127
lradius 31.8511
lwrist 32.8181
lhand -45.0473 24.8572
lfingers 7.12502
lthumb -17.8292 54.0599
rfemur -45.07 -8.14299 33.1708
rtibia 125.51
rfoot -47.7895 -8.81853
rtoes -2.95455
lfemur -46.4659 7.29356 -7.27105
ltibia 131.143
lfoot -49.3735 -11.2399
ltoes -17.382
67
root -1.34637 9.94734 2.1119 164.266 -4.06731 -170.48
lowerback 30.4317 -0.910029 6.44093
upperback 7.32124 -1.00474 2.48745
thorax -8.38874 -1.43399 -0.421352
lowerneck -10.8446 -5.35229 -3.20458
upperneck -7.00222 -7.6148 11.2177
head 0.244912 -4.13168 3.93357
rclavicle 1.09332e-014 2.42517e-014
rhumerus 69.3994 11.364 13.145
rradius 39.3868
rwrist -65.2404
rhand -48.2621 -9.5885
rfingers 7.12502
rthumb -20.9203 -38.4804
lclavicle 1.09332e-014 2.42517e-014
lhumerus 72.3775 -15.9196 -39.2763
lradius 31.8492
lwrist 32.9802
lhand -45.011 24.8363
lfingers 7.12502
lthumb -17.7943 54.0421
rfemur -45.785 -8.37984 33.2403
rtibia 127.167
rfoot -48.1501 -8.80479
rtoes -2.75813
lfemur -47.0184 8.03863 -7.04103
ltibia 132.728
lfoot -49.9893 -11.562
ltoes -17.272
68
root -1.34901 9.77792 2.11085 164.121 -4.02241 -170.485
lowerback 30.7312 -0.869593 6.42549
upperback 7.36947 -0.967305 2.49489
thorax -8.47291 -1.43102 -0.408454
lowerneck -10.9452 -5.34748 -3.10058
upperneck -7.10796 -7.63226 11.2228
head 0.224233 -4.15196 3.91397
rclavicle 2.98177e-016 -3.1408e-014
rhumerus 69.2943 11.2187 13.1478
rradius 39.4425
rwrist -65.4231
rhand -48.3328 -9.72867
rfingers 7.12502
rthumb -20.9882 -38.613
lclavicle 2.98177e-016 -3.1408e-014
lhumerus 72.2883 -15.767 -39.103
lradius 31.8711
lwrist 33.2219
lhand -45.0615 24.8121
lfingers 7.12502
lthumb -17.8428 54.0136
rfemur -46.4261 -8.66272 33.2996
rtibia 128.727
rfoot -48.5255 -8.83058
rtoes -2.53001
lfemur -47.4893 8.81646 -6.79727
ltibia 134.214
lfoot -50.6155 -11.7759
ltoes -17.3917
69
root -1.35201 9.61938 2.11011 163.95 -3.97156 -170.491
lowerback 31.0332 -0.823403 6.41146
upperback 7.44054 -0.930445 2.50338
thorax -8.53124 -1.43056 -0.395552
lowerneck -11.0484 -5.35061 -2.99825
upperneck -7.20437 -7.6595 11.2144
head 0.207121 -4.17619 3.88917
rclavicle -2.8128e-014 2.78299e-015
rhumerus 69.2084 11.0582 13.2521
rradius 39.5131
rwrist -65.7145
rhand -48.4196 -9.77322
rfingers 7.12502
rthumb -21.0715 -38.6483
lclavicle -2.8128e-014 2.78299e-015
lhumerus 72.2141 -15.6405 -38.9276
lradius 31.9003
lwrist 33.4859
lhand -45.1158 24.8097
lfingers 7.12502
lthumb -17.8951 54.0064
rfemur -46.9573 -9.03063 33.3446
rtibia 130.162
rfoot -48.9262 -8.96893
rtoes -2.50972
lfemur -47.8568 9.64453 -6.51777
ltibia 135.582
lfoot -51.2392 -12.1017
ltoes -17.2165
